# xmcd CD database file
#
# Track frame offsets:
#	182
#	18632
#	35507
#	52707
#
# Disc length: 949 seconds
#
# Revision: 0
# Processed by: cddbd v1.5.1PL0 Copyright (c) Steve Scherf et al.
# Submitted via: CDex 1.51
#
DISCID=2703b304
DTITLE=Mark Owen - I am What I am
DYEAR=1900
DGENRE=New Age
TTITLE0=I am What I am
TTITLE1=Mr. You
TTITLE2=Johnny
TTITLE3=Clemintine (remix)
EXTD=
EXTT0=
EXTT1=
EXTT2=
EXTT3=
PLAYORDER=
